# https://github.com/mikedh/trimesh
v -1.00000000 -0.50000000 -0.50000000
v -1.00000000 -0.50000000 0.50000000
v -0.85000002 0.17664216 -0.13393921
v -0.85000002 0.20898564 -0.19444959
v -0.85000002 0.15672515 -0.06828161
v -0.85000002 0.30555043 -0.29101437
v -0.85000002 0.36606079 -0.32335785
v -1.00000000 0.50000000 -0.50000000
v -0.85000002 0.43171838 -0.34327486
v -0.85000002 0.50000000 -0.34999999
v -0.85000002 0.25251263 -0.24748737
v -0.85000002 0.15000001 0.00000000
v -0.85000002 0.15672515 0.06828161
v -0.85000002 0.17664216 0.13393921
v -0.85000002 0.20898564 0.19444959
v -0.85000002 0.25251263 0.24748737
v -0.85000002 0.30555043 0.29101437
v -0.85000002 0.36606079 0.32335785
v -0.85000002 0.43171838 0.34327486
v -0.85000002 0.50000000 0.34999999
v -1.00000000 0.50000000 0.50000000
v 1.00000000 -0.50000000 -0.50000000
v 1.00000000 -0.50000000 0.50000000
v 0.85000002 0.17664216 -0.13393921
v 0.85000002 0.20898564 -0.19444959
v 0.85000002 0.15672515 -0.06828161
v 0.85000002 0.30555043 -0.29101437
v 0.85000002 0.36606079 -0.32335785
v 1.00000000 0.50000000 -0.50000000
v 0.85000002 0.43171838 -0.34327486
v 0.85000002 0.50000000 -0.34999999
v 0.85000002 0.25251263 -0.24748737
v 0.85000002 0.15000001 0.00000000
v 0.85000002 0.15672515 0.06828161
v 0.85000002 0.17664216 0.13393921
v 0.85000002 0.20898564 0.19444959
v 0.85000002 0.25251263 0.24748737
v 0.85000002 0.30555043 0.29101437
v 0.85000002 0.36606079 0.32335785
v 0.85000002 0.43171838 0.34327486
v 0.85000002 0.50000000 0.34999999
v 1.00000000 0.50000000 0.50000000
f 1 22 2
f 1 8 22
f 1 2 21
f 1 21 8
f 8 21 10
f 8 10 31
f 21 20 10
f 2 42 21
f 21 42 20
f 22 29 23
f 2 22 23
f 2 23 42
f 8 29 22
f 8 31 29
f 29 31 41
f 42 41 20
f 23 29 42
f 29 41 42
f 4 11 10
f 6 10 11
f 6 7 10
f 7 9 10
f 4 10 3
f 3 10 5
f 5 10 12
f 12 10 13
f 13 10 14
f 14 10 15
f 4 3 24
f 4 25 11
f 3 5 26
f 5 12 33
f 6 11 32
f 6 27 7
f 7 28 9
f 9 30 10
f 15 10 16
f 16 10 17
f 17 10 18
f 18 10 19
f 19 10 20
f 12 13 34
f 13 14 35
f 14 15 36
f 15 16 37
f 16 17 38
f 17 18 39
f 18 19 40
f 19 20 41
f 11 25 32
f 4 24 25
f 3 26 24
f 5 33 26
f 6 32 27
f 7 27 28
f 9 28 30
f 30 31 10
f 27 32 41
f 25 41 32
f 27 41 28
f 28 41 30
f 30 41 31
f 12 34 33
f 13 35 34
f 14 36 35
f 15 37 36
f 16 38 37
f 17 39 38
f 18 40 39
f 19 41 40
f 24 26 41
f 25 24 41
f 26 33 41
f 33 34 41
f 34 35 41
f 35 36 41
f 36 37 41
f 37 38 41
f 38 39 41
f 39 40 41

